<svg width="35" height="35" viewBox="0 0 35 35" fill="none" xmlns="http://www.w3.org/2000/svg">
<path d="M27.5844 35H7.41494L5.63527 6.52545H29.364L27.5844 35Z" fill="#ED6D6D"/>
<path d="M27.0695 6.52545C23.4698 19.3538 13.2908 26.5027 7.08867 29.7832L7.41495 35H27.5845L29.3641 6.52545C29.3641 6.52545 27.0695 6.52545 27.0695 6.52545Z" fill="#FF000F"/>
<path d="M31.1442 4.15256H3.8558V6.52544H31.1442V4.15256Z" fill="#FF000F"/>
<path d="M21.6522 4.15256H20.4658V1.77967C20.4658 1.45223 20.2 1.18645 19.8726 1.18645H15.1268C14.7993 1.18645 14.5336 1.45223 14.5336 1.77967V4.15256H13.3471V1.77967C13.3471 0.796729 14.1438 0 15.1268 0H19.8726C20.8555 0 21.6522 0.796729 21.6522 1.77967V4.15256Z" fill="#FF000F"/>
<path d="M18.0928 12.4578H16.9063V29.0678H18.0928V12.4578Z" fill="white"/>
<path d="M14.5333 12.4578H13.3468V29.0678H14.5333V12.4578Z" fill="white"/>
<path d="M10.3811 12.4366L9.19519 12.4789L9.78865 29.0925L10.9745 29.0502L10.3811 12.4366Z" fill="white"/>
<path d="M24.6207 12.4376L24.0207 29.0468L25.2062 29.0896L25.8062 12.4804L24.6207 12.4376Z" fill="white"/>
<path d="M21.6522 12.4578H20.4658V29.0678H21.6522V12.4578Z" fill="white"/>
<path d="M5.82094 9.49149L5.89511 10.6779H29.1048L29.179 9.49149H5.82094Z" fill="white"/>
<path d="M7.22982 32.0339H27.7701L27.8442 30.8474H7.15565L7.22982 32.0339Z" fill="white"/>
<path d="M29.2532 8.30512L29.364 6.52545H5.63527L5.74676 8.30512H29.2532Z" fill="white"/>
</svg>
